HIERARCHY
ROOT root
{
	OFFSET 0.000000 0.000000 0.000000
	CHANNELS 6 Xposition Yposition Zposition Zrotation Yrotation Xrotation
	JOINT lhip
	{
		OFFSET 0.058581 -0.082280 -0.017664
		CHANNELS 3 Zrotation Yrotation Xrotation
		JOINT lknee
		{
			OFFSET 0.043451 -0.386469 0.008037
			CHANNELS 3 Zrotation Yrotation Xrotation
			JOINT lankle
			{
				OFFSET -0.014790 -0.426874 -0.037428
				CHANNELS 3 Zrotation Yrotation Xrotation
				JOINT ltoe
				{
					OFFSET 0.041054 -0.060286 0.122042
					CHANNELS 3 Zrotation Yrotation Xrotation
					End Site
					{
						OFFSET 0.000000 0.000000 0.000000
					}
				}
			}
		}
	}
	JOINT rhip
	{
		OFFSET -0.060310 -0.090513 -0.013543
		CHANNELS 3 Zrotation Yrotation Xrotation
		JOINT rknee
		{
			OFFSET -0.043257 -0.383688 -0.004843
			CHANNELS 3 Zrotation Yrotation Xrotation
			JOINT rankle
			{
				OFFSET 0.019056 -0.420046 -0.034562
				CHANNELS 3 Zrotation Yrotation Xrotation
				JOINT rtoe
				{
					OFFSET -0.034840 -0.062106 0.130323
					CHANNELS 3 Zrotation Yrotation Xrotation
					End Site
					{
						OFFSET 0.000000 0.000000 0.000000
					}
				}
			}
		}
	}
	JOINT lowerback
	{
		OFFSET 0.004439 0.124404 -0.038385
		CHANNELS 3 Zrotation Yrotation Xrotation
		JOINT upperback
		{
			OFFSET 0.004488 0.137956 0.026820
			CHANNELS 3 Zrotation Yrotation Xrotation
			JOINT chest
			{
				OFFSET -0.002265 0.056032 0.002855
				CHANNELS 3 Zrotation Yrotation Xrotation
				JOINT lowerneck
				{
					OFFSET -0.013390 0.211636 -0.033468
					CHANNELS 3 Zrotation Yrotation Xrotation
					JOINT upperneck
					{
						OFFSET 0.010113 0.088937 0.050410
						CHANNELS 3 Zrotation Yrotation Xrotation
						End Site
						{
							OFFSET 0.000000 0.000000 0.000000
						}
					}
				}
				JOINT lclavicle
				{
					OFFSET 0.071702 0.114000 -0.018898
					CHANNELS 3 Zrotation Yrotation Xrotation
					JOINT lshoulder
					{
						OFFSET 0.122921 0.045205 -0.019046
						CHANNELS 3 Zrotation Yrotation Xrotation
						JOINT lelbow
						{
							OFFSET 0.255332 -0.015649 -0.022946
							CHANNELS 3 Zrotation Yrotation Xrotation
							JOINT lwrist
							{
								OFFSET 0.265709 0.012698 -0.007375
								CHANNELS 3 Zrotation Yrotation Xrotation
								End Site
								{
									OFFSET 0.000000 0.000000 0.000000
								}
							}
						}
					}
				}
				JOINT rclavicle
				{
					OFFSET -0.082954 0.112472 -0.023707
					CHANNELS 3 Zrotation Yrotation Xrotation
					JOINT rshoulder
					{
						OFFSET -0.113228 0.046853 -0.008472
						CHANNELS 3 Zrotation Yrotation Xrotation
						JOINT relbow
						{
							OFFSET -0.260127 -0.014369 -0.031269
							CHANNELS 3 Zrotation Yrotation Xrotation
							JOINT rwrist
							{
								OFFSET -0.269108 0.006794 -0.006027
								CHANNELS 3 Zrotation Yrotation Xrotation
								End Site
								{
									OFFSET 0.000000 0.000000 0.000000
								}
							}
						}
					}
				}
			}
		}
	}
}
MOTION
Frames: 17
Frame Time: 0.033333
-2.222416 0.741083 0.942848 99.017403 -1.581810 88.344738 0.916390 5.155764 19.261296 -2.779453 -15.917992 4.748323 -2.295146 12.878565 -21.971778 0.000000 -0.000000 0.000000 -4.749916 -2.634202 -27.867317 2.435648 -1.678421 2.950377 1.904818 -11.141687 -11.230528 0.000000 -0.000000 0.000000 -2.499237 -7.261025 4.455061 3.840634 -6.182864 7.929105 1.191357 -4.949624 -1.921342 -2.498151 -6.681301 1.039945 8.708009 -4.734235 -12.781536 -23.789827 -4.915731 1.448660 -48.575617 -26.162987 15.357266 12.057182 -41.878713 -12.645987 0.112686 -17.041910 6.278236 18.629393 -6.699987 -1.805826 56.565159 -18.127960 3.442476 -9.687023 33.151194 -6.103767 4.496653 13.666922 -11.298240 
-2.172672 0.737952 0.937192 99.167194 -1.327021 88.145198 2.978771 5.405264 22.840362 -3.524638 -17.600088 5.016575 -3.414128 13.071876 -20.321840 0.000000 -0.000000 0.000000 -4.834854 -1.674927 -29.384948 3.111413 -3.648839 9.767188 1.282499 -11.616648 -10.754362 0.000000 -0.000000 0.000000 -2.264001 -8.677152 4.325684 3.987858 -5.519082 7.723732 0.891074 -4.950035 -2.084517 -2.146621 -5.933907 1.506175 8.210319 -4.876714 -12.684171 -24.065696 -4.170446 1.532823 -48.833471 -26.124826 15.473462 12.583503 -43.593348 -12.680269 1.057800 -16.982410 5.976467 18.970267 -6.840102 -1.735888 56.447282 -18.215444 3.160238 -10.634255 32.238823 -5.774569 2.538961 13.714380 -11.371527 
-2.120818 0.734454 0.934036 99.207211 -0.721560 88.044367 4.668871 4.750018 24.553947 -4.780396 -17.566289 8.781307 -4.360861 13.614553 -18.321971 0.000000 -0.000000 0.000000 -5.366808 -0.456656 -30.900464 4.827823 -5.132712 17.992132 0.809487 -10.592765 -5.246154 0.000000 -0.000000 0.000000 -1.676712 -9.844836 3.629225 4.444463 -4.948010 8.043672 0.591267 -4.812941 -2.233610 -1.762600 -5.309777 1.740800 7.499939 -5.458691 -12.476998 -25.085918 -3.526070 1.847333 -49.016878 -25.564734 14.853848 12.045946 -45.026422 -11.833106 -0.458113 -17.427523 7.072623 19.687822 -6.648707 -1.245675 55.751086 -17.799202 1.885427 -10.500279 31.784930 -5.974234 5.337273 13.651610 -10.788843 
-2.058917 0.728771 0.933561 98.283686 0.130965 87.858249 5.796521 3.689145 24.069547 -6.349853 -12.750833 17.168441 -4.915853 14.165067 -11.104328 0.000000 -0.000000 0.000000 -4.688594 1.350426 -33.192097 6.195082 -5.472806 29.361062 -2.329007 -10.032042 -6.950751 0.000000 -0.000000 0.000000 -1.059560 -10.215793 2.951051 4.774035 -4.620553 9.674688 0.534355 -4.675580 -3.828183 -1.676364 -4.183830 1.800842 7.932776 -4.582787 -10.871005 -25.970786 -3.230910 3.663562 -48.941371 -23.616994 14.497849 12.121626 -46.448499 -10.984771 -0.968301 -17.436240 7.144135 20.641065 -5.905841 0.273288 55.393491 -15.806304 2.195752 -11.017468 30.638789 -6.885500 4.735370 13.452651 -10.398226 
-2.019904 0.724341 0.934308 98.264399 0.956538 87.502242 7.661103 3.810149 22.542574 -7.428009 -10.025766 24.077478 -5.044739 14.448570 -5.942903 0.000000 -0.000000 0.000000 -3.453269 2.403459 -31.625799 6.604318 -6.704382 32.161223 -5.146230 -10.212973 -9.358739 0.000000 -0.000000 0.000000 -0.902224 -10.287210 2.790761 5.169605 -4.813521 9.461490 0.935099 -4.608497 -3.478955 -1.417684 -4.482900 3.052400 7.497188 -4.931298 -11.861200 -25.814842 -3.149980 4.382749 -49.881697 -22.027480 14.492513 10.595185 -46.563916 -7.744947 -0.587349 -17.618989 5.496466 20.632568 -5.096265 0.149240 55.137676 -15.780008 1.965964 -10.583794 31.718226 -6.230463 4.378317 12.817868 -10.261592 
-1.971359 0.719189 0.936656 98.401776 2.094147 87.310912 8.975892 3.331213 17.732892 -6.607992 -4.141433 35.666458 -1.620784 15.837062 4.733176 0.000000 -0.000000 0.000000 -1.639326 3.374326 -28.223054 6.525351 -8.541582 33.060586 -7.541648 -10.732062 -13.614909 0.000000 -0.000000 0.000000 0.108499 -9.731969 2.709690 5.226535 -5.169274 10.188011 1.135043 -4.835771 -4.615758 -0.787723 -4.655705 2.894577 6.723241 -5.664930 -10.475405 -25.567500 -2.493221 5.236396 -51.384588 -19.718013 14.425624 8.625682 -46.719174 -3.440834 -1.739213 -16.728743 5.313659 20.738930 -4.687958 0.571254 55.623263 -14.444220 2.606938 -10.982987 32.510836 -7.849074 4.338598 12.476385 -11.232331 
-1.926625 0.715946 0.942211 97.478946 2.471047 87.458789 8.051114 1.546199 12.073327 -3.889135 0.803044 46.266414 0.963725 20.219548 4.903101 0.000000 -0.000000 0.000000 0.022196 4.575361 -24.727127 6.688568 -7.392422 32.529508 -7.924351 -11.540911 -15.613988 0.000000 -0.000000 0.000000 0.300221 -7.857184 2.276069 5.584285 -5.365224 10.690219 1.273786 -4.266461 -5.053676 -1.813307 -6.954955 3.219005 7.911530 -4.469734 -10.250426 -26.321261 -1.767931 6.381377 -52.319317 -18.421299 14.556256 5.792519 -45.606473 1.456471 -1.942634 -16.114150 5.410517 21.139477 -4.592352 0.993748 55.726770 -12.686985 2.913461 -11.192241 33.488313 -9.318346 3.176305 12.837624 -11.621787 
-1.883866 0.713933 0.951447 96.426372 2.363512 87.030796 6.535750 0.345683 6.596770 -1.552391 4.233836 53.716566 3.459123 22.679067 3.058945 0.000000 -0.000000 0.000000 1.469921 4.775546 -19.919395 6.884343 -5.220101 30.475339 -7.817204 -12.036169 -16.898787 0.000000 -0.000000 0.000000 -0.174115 -5.151729 2.958805 5.780279 -5.111719 10.909469 1.970332 -4.235397 -5.690474 -2.078725 -9.011899 4.137166 8.049161 -4.406145 -11.147851 -26.801926 -1.741565 6.692369 -54.427248 -15.949275 15.652543 5.242075 -43.392474 3.556216 -2.770414 -15.485058 4.873068 20.732259 -3.520478 0.230473 56.455498 -11.771843 4.070096 -10.584292 33.504772 -9.788852 2.231754 13.353369 -12.804015 
-1.843509 0.712790 0.961394 94.789991 1.457857 87.210765 4.508316 -0.738493 0.320016 -0.167843 6.762465 57.962221 4.682496 22.656348 -1.027133 0.000000 -0.000000 0.000000 1.819410 4.012499 -15.025441 6.560931 -3.367641 26.826470 -7.098168 -11.153563 -17.574518 0.000000 -0.000000 0.000000 -0.654256 -3.109181 3.270014 5.240767 -5.244419 10.032827 1.473887 -3.282685 -5.632000 -1.690047 -9.148351 3.957558 8.408329 -4.489896 -10.587936 -25.664052 -0.282601 6.959890 -57.167260 -12.923697 16.638318 5.523455 -41.947988 5.198087 -5.386984 -14.328823 3.109009 21.093138 -2.450832 1.000984 57.736438 -9.304834 5.334808 -12.106890 34.833230 -10.422214 3.201816 12.413270 -13.163897 
-1.795180 0.712298 0.973924 92.179153 0.231321 87.034694 2.782623 -1.060453 -7.047365 -0.029531 9.232646 58.609134 3.201438 21.203056 -9.633765 0.000000 -0.000000 0.000000 1.991130 3.239914 -8.655080 5.596152 -0.350844 21.901255 -5.118455 -10.017599 -17.609025 0.000000 -0.000000 0.000000 -1.379604 -0.235152 4.283002 4.698173 -4.954166 9.147871 0.791794 -1.892762 -5.670733 -0.649413 -9.770490 4.179596 8.129743 -5.175259 -10.774976 -24.526419 1.950958 6.365822 -59.525454 -8.780320 18.481182 5.207517 -39.591238 8.316014 -6.574633 -14.389599 0.675001 21.310397 -1.522176 0.506368 58.751488 -6.279974 8.252617 -12.232017 35.320464 -9.039656 1.272595 13.624873 -16.634814 
-1.757134 0.712067 0.982412 90.309032 -0.604247 86.563082 2.104864 -1.498983 -11.979084 -0.371867 11.308093 55.865009 3.904953 21.427499 -10.257956 0.000000 -0.000000 0.000000 1.709400 2.513039 -3.420109 5.044145 1.565235 18.092338 -4.040729 -9.163118 -17.366154 0.000000 -0.000000 0.000000 -2.022428 2.234440 3.920956 4.323235 -4.749662 10.619717 0.783590 -1.011502 -5.671880 0.191643 -10.460670 3.044344 7.456816 -6.057733 -10.441125 -24.162797 2.483435 6.578126 -60.410779 -5.675930 18.323708 4.932316 -38.640572 9.576753 -6.856008 -13.985465 0.030226 21.097466 -0.056294 1.763656 59.068097 -2.913844 8.834573 -12.415339 37.506770 -9.740078 -0.243658 13.582773 -17.375588 
-1.720860 0.711806 0.988960 87.982894 -1.267146 86.271387 2.262773 -1.177967 -16.167182 -1.412852 13.203074 50.046647 2.435427 19.893812 -14.319429 0.000000 -0.000000 0.000000 1.210256 2.057205 1.318592 4.443928 3.579908 14.638750 -1.997744 -7.366833 -16.554384 0.000000 -0.000000 0.000000 -2.263599 4.219104 4.894422 3.849416 -4.100062 9.533356 0.522191 -0.279821 -4.871302 1.309342 -10.516445 2.146505 6.603470 -7.141984 -10.216366 -23.140843 4.843848 5.974673 -61.312247 -2.308781 18.369958 4.330590 -37.903015 11.332358 -7.552137 -13.495568 -0.365870 21.251530 0.531638 1.849413 58.539365 0.298031 10.097801 -11.507921 39.414201 -9.277630 -0.625110 13.929306 -18.254041 
-1.684262 0.711503 0.992044 86.370632 -1.405644 86.434395 2.910248 -0.893170 -19.573773 -2.076810 14.519796 41.516410 2.872507 19.163805 -12.250502 0.000000 -0.000000 0.000000 0.823669 0.367220 5.451610 3.731261 5.209304 11.303887 -0.641763 -5.984329 -16.407505 0.000000 -0.000000 0.000000 -1.980360 5.908441 5.109308 3.381629 -3.956078 9.013673 0.418539 0.168320 -4.506935 2.294976 -10.637313 1.251973 5.616998 -7.726364 -9.529241 -22.614133 6.806149 5.493211 -60.959248 1.741354 17.865519 2.952509 -38.143854 13.166082 -7.485458 -13.124247 -0.634710 21.367512 1.085590 2.005364 57.513630 3.294245 11.105486 -10.099141 41.907074 -9.206379 -1.121683 13.593409 -18.503082 
-1.645373 0.711261 0.991418 84.679407 -1.330466 86.356357 3.430207 0.179554 -21.301404 -2.600219 14.890850 30.564293 3.004222 18.492878 -11.541229 0.000000 -0.000000 0.000000 0.130087 -1.232371 10.136754 3.406110 7.040799 7.911184 0.657799 -4.125492 -15.314613 0.000000 -0.000000 0.000000 -1.682224 7.385436 4.608866 3.229868 -3.890927 9.309777 0.241103 0.706192 -3.757370 2.898791 -10.652627 0.630392 5.007151 -7.903623 -9.324873 -21.986266 8.328440 5.432319 -60.649817 5.539701 17.094715 1.908019 -38.659509 14.755169 -7.112275 -13.372518 -2.087469 21.462827 1.829780 2.095781 56.248741 6.540029 11.857249 -8.815554 43.875585 -8.813631 -2.590237 14.176042 -18.789869 
-1.606356 0.711672 0.987077 83.521092 -0.761530 86.209317 3.829558 1.631588 -22.329899 -3.438516 12.861021 18.936587 2.872899 17.152456 -10.350706 0.000000 -0.000000 0.000000 -0.333686 -2.304153 14.270179 3.274703 8.732706 5.644259 1.899847 -3.013543 -15.272887 0.000000 -0.000000 0.000000 -0.772890 8.214741 4.553553 3.101576 -3.612563 9.545500 0.060366 1.071947 -3.389965 3.581654 -10.600955 -0.532586 3.873908 -8.459118 -8.428187 -21.258771 10.193246 5.185360 -60.289321 8.969887 16.000175 0.839327 -38.799764 16.805898 -8.196213 -13.048905 -2.267593 21.421199 2.419594 2.252093 55.036679 9.682731 12.226022 -7.539720 45.662296 -8.354297 -2.209414 14.677942 -18.954905 
-1.566662 0.712366 0.979597 81.919888 0.029650 86.312401 4.684384 3.094209 -23.047337 -4.046303 9.001821 8.358796 2.764739 15.836865 -9.495364 0.000000 -0.000000 0.000000 -1.118594 -3.003545 17.801887 3.446626 10.593089 3.948950 3.468465 -1.381882 -15.461748 0.000000 -0.000000 0.000000 0.203381 8.997042 4.013243 3.018577 -3.126622 9.959934 -0.180287 1.618048 -2.857497 4.531828 -10.368204 -1.406293 2.871402 -9.200152 -7.927563 -20.613265 12.293487 4.644197 -59.378238 12.127760 14.619064 -0.992766 -39.213427 18.438676 -9.308707 -12.171045 -1.860575 21.497309 3.032307 1.284155 53.660107 11.474765 12.243981 -5.804954 47.626570 -7.351053 -1.536226 14.422420 -18.654094 
-1.525161 0.714072 0.970406 80.106123 1.076348 86.459403 6.089215 4.369819 -24.048589 -3.316233 7.067405 2.044436 2.270008 13.766032 -9.542632 0.000000 -0.000000 0.000000 -2.278804 -3.797566 20.563636 4.035632 12.282703 3.773489 5.295351 1.085414 -15.251441 0.000000 -0.000000 0.000000 1.469201 9.674524 3.792033 3.121161 -2.595414 10.317177 -0.400796 2.216992 -2.951264 5.158002 -10.135692 -2.217144 1.524651 -10.036231 -7.633773 -20.589816 14.123509 4.240102 -58.598065 15.183303 13.311163 -1.223319 -38.919802 18.955630 -9.966024 -12.177016 -1.220168 21.736982 3.234429 1.886584 52.045244 14.242955 11.073712 -4.099560 49.222202 -7.261060 0.282140 15.618767 -16.731415 
